HIERARCHY
ROOT Hips
{
  OFFSET 26.9316 98.8111 -11.6566
  CHANNELS 6 Xposition Yposition Zposition Zrotation Xrotation Yrotation
  JOINT spine
  {
    OFFSET 0 8.30104 0.477351
    CHANNELS 3 Zrotation Xrotation Yrotation
    JOINT spine1
    {
      OFFSET 0 10.4565 0
      CHANNELS 3 Zrotation Xrotation Yrotation
      JOINT spine2
      {
        OFFSET 0 10.0192 0
        CHANNELS 3 Zrotation Xrotation Yrotation
        JOINT Neck
        {
          OFFSET 0 25.7235 1.22641
          CHANNELS 3 Zrotation Xrotation Yrotation
          JOINT Head
          {
            OFFSET 0 7.77175 0
            CHANNELS 3 Zrotation Xrotation Yrotation
            End Site
            {
              OFFSET 0 18.812 -6.20394
            }
          }
        }
        JOINT RightShoulder
        {
          OFFSET -4.2188 10.82 -0.587439
          CHANNELS 3 Zrotation Xrotation Yrotation
          JOINT RightArm
          {
            OFFSET 0 14.1914 0
            CHANNELS 3 Zrotation Xrotation Yrotation
            JOINT RightArmRoll
            {
              OFFSET 0 7.16408 0
              CHANNELS 3 Zrotation Xrotation Yrotation
              JOINT RightForeArm
              {
                OFFSET 0 20.8665 0
                CHANNELS 3 Zrotation Xrotation Yrotation
                JOINT RightForeArmRoll
                {
                  OFFSET 0 8.03921 0
                  CHANNELS 3 Zrotation Xrotation Yrotation
                  JOINT RightHand
                  {
                    OFFSET 0 16.133 0
                    CHANNELS 3 Zrotation Xrotation Yrotation
                    End Site
                    {
                      OFFSET 0 0 0
                    }
                  }
                }
              }
            }
          }
        }
        JOINT LeftShoulder
        {
          OFFSET 4.2188 10.82 -0.587439
          CHANNELS 3 Zrotation Xrotation Yrotation
          JOINT LeftArm
          {
            OFFSET 0 14.1914 0
            CHANNELS 3 Zrotation Xrotation Yrotation
            JOINT LeftArmRoll
            {
              OFFSET 0 7.16409 0
              CHANNELS 3 Zrotation Xrotation Yrotation
              JOINT LeftForeArm
              {
                OFFSET 0 20.8665 0
                CHANNELS 3 Zrotation Xrotation Yrotation
                JOINT LeftForeArmRoll
                {
                  OFFSET 0 8.03921 0
                  CHANNELS 3 Zrotation Xrotation Yrotation
                  JOINT LeftHand
                  {
                    OFFSET 0 16.133 0
                    CHANNELS 3 Zrotation Xrotation Yrotation
                    End Site
                    {
                      OFFSET 0 0 0
                    }
                  }
                }
              }
            }
          }
        }
      }
    }
  }
  JOINT RightUpLeg
  {
    OFFSET -7.35773 -1.34921 -1.13182
    CHANNELS 3 Zrotation Xrotation Yrotation
    JOINT RightUpLegRoll
    {
      OFFSET 0 18.9168 0
      CHANNELS 3 Zrotation Xrotation Yrotation
      JOINT RightLeg
      {
        OFFSET 0 -23.4256 0
        CHANNELS 3 Zrotation Xrotation Yrotation
        JOINT RightLegRoll
        {
          OFFSET 0 23.5023 0
          CHANNELS 3 Zrotation Xrotation Yrotation
          JOINT RightFoot
          {
            OFFSET 0 19.5617 0
            CHANNELS 3 Zrotation Xrotation Yrotation
            JOINT RightToeBase
            {
              OFFSET 0 16.3526 0
              CHANNELS 3 Zrotation Xrotation Yrotation
              End Site
              {
                OFFSET 0.00693125 7.91943 -0.912837
              }
            }
          }
        }
      }
    }
  }
  JOINT LeftUpLeg
  {
    OFFSET 7.35773 -1.34921 -1.13182
    CHANNELS 3 Zrotation Xrotation Yrotation
    JOINT LeftUpLegRoll
    {
      OFFSET 0 18.9169 0
      CHANNELS 3 Zrotation Xrotation Yrotation
      JOINT LeftLeg
      {
        OFFSET 0 23.4255 0
        CHANNELS 3 Zrotation Xrotation Yrotation
        JOINT LeftLegRoll
        {
          OFFSET 0 23.7195 0
          CHANNELS 3 Zrotation Xrotation Yrotation
          JOINT LeftFoot
          {
            OFFSET 0 19.3444 0
            CHANNELS 3 Zrotation Xrotation Yrotation
            JOINT LeftToeBase
            {
              OFFSET 0 16.3526 0
              CHANNELS 3 Zrotation Xrotation Yrotation
              End Site
              {
                OFFSET -0.0310629 7.91944 -0.912837
              }
            }
          }
        }
      }
    }
  }
}
MOTION
Frames: 11
Frame Time: 0.00208333
31.5985 98.737 -0.842378 0.363951 -4.41388 0.860425 0.161831 -0.477001 0.289201 0.318533 3.04844 0.556652 0.312137 4.69347 0.552089 -1.20034 22.4537 -2.16262 0.938598 -8.37816 -2.40258 73.2622 -1.0686 -2.17819 93.1312 24.3894 27.0387 -9.54166e-015 -3.18055e-015 -3.18055e-015 6.41651 0.0495425 0.297287 -1.64784e-005 -8.30533e-007 -3.02207 8.02938 -4.95141 0.697659 -66.6918 3.74513 -0.993383 -100.652 15.6592 -15.6352 -8.74653e-015 -3.18055e-015 -3.18055e-015 -9.21749 5.13501 1.0368 -1.3979e-006 -3.85601e-006 3 -8.02902 -4.95146 -0.697674 172.804 -2.79305 2.96097 180 7.01512e-015 178.782 176.161 5.59362 179.719 -5.41661e-007 -1.62237e-006 0.0648344 -18.3265 67.386 19.0378 8.12096 25.2335 -3.48111 -171.983 -1.58065 -0.992947 4.54188e-006 -4.6773e-006 -1.30292 -2.5666 -9.14036 0.552734 2.68211e-006 -3.53441e-006 -0.103295 18.2459 67.1507 -18.8417 -8.13327 25.2328 3.48636 
31.6 98.7453 -0.866542 0.367602 -4.41965 0.857694 0.161854 -0.47437 0.28678 0.320105 3.05375 0.553524 0.313742 4.69878 0.548913 -1.23565 22.4312 -2.15095 0.950387 -8.37097 -2.40087 73.2243 -1.07473 -2.17731 93.2135 24.4323 26.9526 -3.18055e-015 -6.36111e-015 -0 6.44461 0.0410731 0.304372 -1.64784e-005 -8.30533e-007 -3.02113 8.02938 -4.95141 0.697659 -66.7027 3.74397 -0.991066 -100.677 15.7021 -15.5766 -2.70347e-014 -9.54166e-015 -6.36111e-015 -9.23327 5.23061 1.04691 -1.3979e-006 -3.85601e-006 3 -8.02902 -4.95146 -0.697674 172.799 -2.79384 2.96224 180 7.01512e-015 178.782 176.164 5.5937 179.719 -5.41661e-007 -1.62237e-006 0.0648431 -18.326 67.3853 19.0372 8.12096 25.2335 -3.48111 -171.986 -1.57042 -0.993121 4.54188e-006 -4.6773e-006 -1.30293 -2.56826 -9.16122 0.552867 2.68211e-006 -3.53441e-006 -0.103901 18.2514 67.1577 -18.8471 -8.13327 25.2328 3.48636 
31.5977 98.7401 -0.869643 0.371303 -4.42603 0.854915 0.161888 -0.471619 0.284293 0.321776 3.05927 0.550366 0.315445 4.7043 0.545705 -1.27215 22.4084 -2.13886 0.962839 -8.36335 -2.39902 73.1851 -1.08098 -2.17635 93.2975 24.4758 26.8668 -9.54166e-015 3.18055e-015 -0 6.47164 0.0284738 0.312192 -1.64784e-005 -8.30533e-007 -3.02015 8.02938 -4.95141 0.697659 -66.7141 3.7426 -0.988561 -100.701 15.7458 -15.5185 -1.19271e-014 0 1.59028e-015 -9.24867 5.32514 1.05689 -1.3979e-006 -3.85601e-006 3 -8.02902 -4.95146 -0.697674 172.794 -2.79546 2.96337 180 7.01512e-015 178.782 176.166 5.59348 179.718 -5.41661e-007 -1.62237e-006 0.0648561 -18.3255 67.3847 19.0365 8.12096 25.2335 -3.48111 -171.989 -1.5607 -0.993021 4.54188e-006 -4.6773e-006 -1.30296 -2.56963 -9.18252 0.553051 2.68211e-006 -3.53441e-006 -0.104529 18.2575 67.1656 -18.8531 -8.13327 25.2328 3.48636 
31.598 98.7429 -0.87365 0.37504 -4.43282 0.852101 0.16193 -0.468784 0.281762 0.323515 3.06495 0.547188 0.317216 4.70999 0.542473 -1.30948 22.3855 -2.12646 0.975756 -8.35542 -2.39708 73.1452 -1.08731 -2.17535 93.3829 24.5199 26.7812 6.36111e-015 -9.54166e-015 -6.36111e-015 6.49794 0.0129836 0.320526 -1.64784e-005 -8.30533e-007 -3.01915 8.02938 -4.95141 0.697659 -66.7259 3.74108 -0.985923 -100.726 15.7902 -15.4605 -3.97569e-015 -9.54166e-015 -1.59028e-015 -9.26382 5.41893 1.06679 -1.3979e-006 -3.85601e-006 3 -8.02902 -4.95146 -0.697674 172.789 -2.79764 2.96439 180 7.01512e-015 178.782 176.169 5.59307 179.718 -5.41661e-007 -1.62237e-006 0.064872 -18.3251 67.3842 19.036 8.12096 25.2335 -3.48111 -171.993 -1.55133 -0.992727 4.54188e-006 -4.6773e-006 -1.30298 -2.57079 -9.20411 0.553271 2.68211e-006 -3.53441e-006 -0.105172 18.2642 67.174 -18.8596 -8.13327 25.2328 3.48636 
31.5929 98.7407 -0.884676 0.378797 -4.43986 0.849268 0.161977 -0.465901 0.279205 0.325293 3.07073 0.543997 0.319027 4.71576 0.539229 -1.34728 22.3625 -2.11389 0.988938 -8.34732 -2.39509 73.1047 -1.09368 -2.17433 93.4691 24.5642 26.6956 9.54166e-015 -9.54166e-015 3.18055e-015 6.52382 -0.00415849 0.329155 -1.64784e-005 -8.30533e-007 -3.01813 8.02938 -4.95141 0.697659 -66.7378 3.73947 -0.98321 -100.75 15.8349 -15.4028 -1.98785e-015 -1.59028e-015 1.59028e-015 -9.27882 5.51229 1.07663 -1.3979e-006 -3.85601e-006 3 -8.02902 -4.95146 -0.697674 172.784 -2.80016 2.96534 180 7.01512e-015 178.782 176.172 5.59257 179.718 -5.41661e-007 -1.62237e-006 0.0648897 -18.3247 67.3838 19.0355 8.12096 25.2335 -3.48111 -171.996 -1.54216 -0.992324 4.54188e-006 -4.6773e-006 -1.30301 -2.57184 -9.22589 0.553512 2.68211e-006 -3.53441e-006 -0.105824 18.2711 67.1828 -18.8664 -8.13327 25.2328 3.48636 
31.6349 98.739 -0.843667 0.382558 -4.44695 0.846429 0.162025 -0.463006 0.276641 0.327081 3.07652 0.540804 0.320849 4.72156 0.535982 -1.38518 22.3395 -2.10129 1.00219 -8.33917 -2.39308 73.0641 -1.10006 -2.17329 93.5556 24.6086 26.6101 -1.59028e-015 -3.18055e-015 -0 6.54959 -0.0217135 0.337857 -1.64784e-005 -8.30533e-007 -3.01711 8.02938 -4.95141 0.697659 -66.7498 3.73784 -0.980478 -100.775 15.8797 -15.3451 -7.15625e-015 -3.18055e-015 -1.59028e-015 -9.29382 5.60554 1.08648 -1.3979e-006 -3.85601e-006 3 -8.02902 -4.95146 -0.697674 172.779 -2.80275 2.96628 180 7.01512e-015 178.782 176.175 5.59203 179.717 -5.41661e-007 -1.62237e-006 0.0649077 -18.3244 67.3834 19.035 8.12096 25.2335 -3.48111 -172 -1.53304 -0.991893 4.54188e-006 -4.6773e-006 -1.30304 -2.57286 -9.2477 0.553757 2.68211e-006 -3.53441e-006 -0.106478 18.2781 67.1917 -18.8733 -8.13327 25.2328 3.48636 
31.6324 98.7436 -0.858887 0.386308 -4.45393 0.843601 0.162072 -0.460135 0.27409 0.328851 3.08227 0.537616 0.322651 4.72731 0.532741 -1.42284 22.3165 -2.08877 1.0153 -8.33112 -2.3911 73.0238 -1.10642 -2.17227 93.6419 24.6529 26.5244 -1.59028e-015 -3.18055e-015 -0 6.57559 -0.0384426 0.346412 -1.64784e-005 -8.30533e-007 -3.0161 8.02938 -4.95141 0.697659 -66.7617 3.73626 -0.977784 -100.8 15.9243 -15.2872 -2.54444e-014 -1.11319e-014 -4.77083e-015 -9.30893 5.69901 1.09635 -1.3979e-006 -3.85601e-006 3 -8.02902 -4.95146 -0.697674 172.774 -2.80518 2.96726 180 7.01512e-015 178.782 176.178 5.59155 179.717 -5.41661e-007 -1.62237e-006 0.0649249 -18.324 67.3829 19.0344 8.12096 25.2335 -3.48111 -172.003 -1.52383 -0.991518 4.54188e-006 -4.6773e-006 -1.30307 -2.57394 -9.26943 0.553993 2.68211e-006 -3.53441e-006 -0.107128 18.2849 67.2005 -18.8801 -8.13327 25.2328 3.48636 
31.6291 98.7373 -0.866236 0.390031 -4.4606 0.840797 0.162113 -0.457324 0.271571 0.330573 3.08791 0.534443 0.324406 4.73295 0.529516 -1.45988 22.2936 -2.07648 1.02808 -8.32328 -2.38919 72.9841 -1.11273 -2.17129 93.7274 24.6967 26.4385 4.77083e-015 -9.54166e-015 -3.18055e-015 6.60212 -0.0531067 0.354599 -1.64784e-005 -8.30533e-007 -3.01511 8.02938 -4.95141 0.697659 -66.7733 3.73478 -0.975184 -100.825 15.9685 -15.2292 5.1684e-015 1.59028e-015 1.59028e-015 -9.32429 5.79301 1.1063 -1.3979e-006 -3.85601e-006 3 -8.02902 -4.95146 -0.697674 172.769 -2.8072 2.9683 180 7.01512e-015 178.782 176.181 5.59118 179.717 -5.41661e-007 -1.62237e-006 0.06494 -18.3236 67.3824 19.0339 8.12096 25.2335 -3.48111 -172.007 -1.51436 -0.99128 4.54188e-006 -4.6773e-006 -1.3031 -2.57516 -9.29094 0.554203 2.68211e-006 -3.53441e-006 -0.107767 18.2914 67.2087 -18.8865 -8.13327 25.2328 3.48636 
31.6355 98.7388 -0.865289 0.393714 -4.4668 0.838032 0.162145 -0.45461 0.269105 0.332218 3.09337 0.531294 0.326084 4.73841 0.526317 -1.49596 22.271 -2.06454 1.04033 -8.31579 -2.38738 72.9453 -1.11894 -2.17035 93.8117 24.74 26.3523 3.18055e-015 3.18055e-015 -0 6.62949 -0.0644669 0.362199 -1.64784e-005 -8.30533e-007 -3.01414 8.02938 -4.95141 0.697659 -66.7846 3.73348 -0.972735 -100.85 16.012 -15.1708 -1.82882e-014 -1.11319e-014 -4.77083e-015 -9.34001 5.88785 1.11635 -1.3979e-006 -3.85601e-006 3 -8.02902 -4.95146 -0.697674 172.764 -2.80857 2.96947 180 7.01512e-015 178.782 176.184 5.59107 179.716 -5.41661e-007 -1.62237e-006 0.0649517 -18.3231 67.3818 19.0332 8.12096 25.2335 -3.48111 -172.01 -1.50448 -0.991262 4.54188e-006 -4.6773e-006 -1.30312 -2.57661 -9.31211 0.554372 2.68211e-006 -3.53441e-006 -0.108388 18.2974 67.2163 -18.8923 -8.13327 25.2328 3.48636 
31.6315 98.737 -0.86578 0.397339 -4.47233 0.83532 0.162164 -0.452027 0.266709 0.333757 3.09858 0.528179 0.327655 4.74362 0.523153 -1.53071 22.2486 -2.05308 1.05185 -8.30877 -2.38573 72.9079 -1.12504 -2.1695 93.8942 24.7824 26.2657 1.43125e-014 -3.18055e-015 9.54166e-015 6.65803 -0.0712843 0.36899 -1.64784e-005 -8.30533e-007 -3.01321 8.02938 -4.95141 0.697659 -66.7953 3.73241 -0.970495 -100.875 16.0545 -15.112 -0 -1.59028e-015 -0 -9.35623 5.98386 1.12656 -1.3979e-006 -3.85601e-006 3 -8.02902 -4.95146 -0.697674 172.759 -2.80905 2.97081 180 7.01512e-015 178.782 176.186 5.59124 179.716 -5.41661e-007 -1.62237e-006 0.0649587 -18.3226 67.381 19.0325 8.12096 25.2335 -3.48111 -172.013 -1.49406 -0.991546 4.54188e-006 -4.6773e-006 -1.30313 -2.57838 -9.33279 0.554485 2.68211e-006 -3.53441e-006 -0.108986 18.3026 67.223 -18.8975 -8.13327 25.2328 3.48636 
31.6423 98.7368 -0.866081 0.400893 -4.47702 0.832676 0.162168 -0.449612 0.264404 0.33516 3.10348 0.525105 0.32909 4.74852 0.520034 -1.56378 22.2265 -2.04224 1.06244 -8.30237 -2.38426 72.8722 -1.13098 -2.16873 93.9743 24.8238 26.1787 7.95139e-015 -9.54166e-015 3.18055e-015 6.68805 -0.0723199 0.374753 -1.64784e-005 -8.30533e-007 -3.01232 8.02938 -4.95141 0.697659 -66.8054 3.73165 -0.968519 -100.9 16.0958 -15.0525 -9.54166e-015 -4.77083e-015 -0 -9.37308 6.08136 1.13697 -1.3979e-006 -3.85601e-006 3 -8.02902 -4.95146 -0.697674 172.754 -2.80837 2.97237 180 7.01512e-015 178.782 176.188 5.59182 179.716 -5.41661e-007 -1.62237e-006 0.0649598 -18.3218 67.3802 19.0318 8.12096 25.2335 -3.48111 -172.017 -1.48293 -0.992216 4.54188e-006 -4.6773e-006 -1.30313 -2.58056 -9.35287 0.554527 2.68211e-006 -3.53441e-006 -0.109554 18.3069 67.2284 -18.9017 -8.13327 25.2328 3.48636 
